<svg width="151" height="35" viewBox="0 0 151 35" fill="none" xmlns="http://www.w3.org/2000/svg">
    <rect x="1.71592" y="1.71581" width="147.625" height="31.6139" rx="4" stroke="url(#paint0_linear_1034_48)" stroke-width="2"/>
    <path d="M20.9499 15.1966C20.9499 13.8945 18.7348 13.5032 17.6746 13.5032C14.845 13.5032 12.8731 15.9759 12.8731 18.6915C12.8731 21.4812 14.791 23.8426 17.6746 23.8426C18.6437 23.8426 20.9499 23.3771 20.9499 22.0007C20.9499 21.3699 20.4299 20.8302 19.7951 20.8302C19.4777 20.8302 18.4748 21.3868 17.8029 21.3868C16.351 21.3868 15.5507 20.0104 15.5507 18.6915C15.5507 17.3151 16.2767 15.959 17.8029 15.959C18.6605 15.959 19.2548 16.4785 19.9234 16.4785C20.5582 16.4785 20.9499 15.7532 20.9499 15.1966Z" fill="#0093D0"/>
    <path d="M26.457 15.959C27.9258 15.959 28.5775 17.4096 28.5775 18.6915C28.5775 19.9733 27.9089 21.3868 26.457 21.3868C25.0051 21.3868 24.3365 19.9733 24.3365 18.6915C24.3365 17.4062 24.9882 15.959 26.457 15.959ZM26.457 13.5032C23.6275 13.5032 21.6556 15.9759 21.6556 18.6915C21.6556 21.4812 23.5734 23.8426 26.457 23.8426C29.3406 23.8426 31.2585 21.4812 31.2585 18.6915C31.2585 15.9759 29.2866 13.5032 26.457 13.5032Z" fill="#0093D0"/>
    <path d="M32.5247 22.2436C32.5247 23.1375 33.0818 23.7313 33.8652 23.7313C34.6486 23.7313 35.2057 23.1375 35.2057 22.2436V18.1348C35.2057 17.0756 36.0262 16.7214 36.8264 16.3503C37.6267 15.9793 38.4269 15.9219 38.4269 15.0482C38.4269 14.0801 37.7753 13.6179 37.1236 13.6179C36.2862 13.6179 35.746 13.989 35.2428 14.7345H35.2057C35.2057 13.8777 34.6114 13.6179 33.9023 13.6179C33.2338 13.6179 32.5247 14.0632 32.5247 14.9571V22.2436Z" fill="#0093D0"/>
    <path d="M41.216 18.6915C41.216 17.4096 41.8677 15.959 43.3365 15.959C44.7512 15.959 45.4029 17.4096 45.4029 18.6915C45.4029 19.9733 44.7344 21.3868 43.3365 21.3868C41.8845 21.3868 41.216 19.9733 41.216 18.6915ZM48.0839 15.3619C48.0839 14.6738 48.0839 13.6145 46.8008 13.6145C46.1491 13.6145 45.592 14.0801 45.5177 14.7311C44.9234 13.8945 43.9544 13.5032 42.9684 13.5032C40.5103 13.5032 38.5384 15.7533 38.5384 18.6915C38.5384 21.7039 40.4563 23.8426 42.9684 23.8426C43.9915 23.8426 44.8289 23.4141 45.5177 22.5978C45.7034 23.3028 46.0208 23.7313 46.8008 23.7313C48.0839 23.7313 48.0839 22.672 48.0839 21.9839V15.3619Z" fill="#0093D0"/>
    <path d="M49.7384 22.2436C49.7384 23.1375 50.2955 23.7313 51.0789 23.7313C51.8623 23.7313 52.4194 23.1375 52.4194 22.2436V10.791C52.4194 9.89709 51.8623 9.30338 51.0789 9.30338C50.2955 9.30338 49.7384 9.89709 49.7384 10.791V22.2436Z" fill="#0093D0"/>
    <path d="M54.7391 22.2234C54.7391 23.0599 55.3334 23.7279 56.191 23.7279C57.0487 23.7279 57.643 23.0599 57.643 22.2234V16.4043H58.4432C59.3751 16.4043 59.9694 15.9961 59.9694 15.0651C59.9694 14.134 59.3751 13.7259 58.4432 13.7259H57.643V12.9264C57.643 12.1842 57.8658 11.9785 58.3115 11.9785C59.2232 11.9785 59.6891 11.55 59.6891 10.6392C59.6891 9.54289 58.6458 9.3 57.7544 9.3C55.9682 9.3 54.7391 10.6561 54.7391 12.4237V13.7259H54.4048C53.4729 13.7259 52.8786 14.134 52.8786 15.0651C52.8786 15.9961 53.4729 16.4043 54.4048 16.4043H54.7391V22.2234Z" fill="#FCAF17"/>
    <path d="M64.494 16.2188C65.7771 16.2188 66.4862 17.3353 66.4862 18.6746C66.4862 20.0138 65.7805 21.1304 64.494 21.1304C63.2075 21.1304 62.5018 20.0138 62.5018 18.6746C62.5018 17.3353 63.2109 16.2188 64.494 16.2188ZM69.39 15.1224C69.39 14.2858 68.7957 13.6179 67.9381 13.6179C67.2324 13.6179 66.7833 14.1003 66.5807 14.549C65.929 13.7495 65.1862 13.4324 64.0854 13.4324C61.553 13.4324 59.6014 15.7566 59.6014 18.6746C59.6014 21.5925 61.5564 23.9168 64.0854 23.9168C65.1828 23.9168 65.929 23.5997 66.5807 22.8002C66.7867 23.2455 67.2324 23.7313 67.9381 23.7313C68.7957 23.7313 69.39 23.0633 69.39 22.2267V15.1224Z" fill="#FCAF17"/>
    <path d="M70.8386 22.2233C70.8386 23.0599 71.4328 23.7279 72.2905 23.7279C73.1481 23.7279 73.7424 23.0599 73.7424 22.2233V17.6322C73.7424 16.7214 74.2455 15.8848 75.1943 15.8848C76.1431 15.8848 76.6462 16.7214 76.6462 17.6322V22.2233C76.6462 23.0599 77.2405 23.7279 78.0982 23.7279C78.9558 23.7279 79.5501 23.0599 79.5501 22.2233V17.6322C79.5501 16.7214 80.0532 15.8848 81.002 15.8848C81.9508 15.8848 82.4539 16.7214 82.4539 17.6322V22.2233C82.4539 23.0599 83.0482 23.7279 83.9059 23.7279C84.7635 23.7279 85.3578 23.0599 85.3578 22.2233V16.8496C85.3578 14.468 83.7573 13.429 81.7482 13.429C80.5023 13.429 79.6278 14.0969 78.9389 14.6198C78.2332 13.7259 77.0784 13.429 76.2411 13.429C75.1977 13.429 74.2117 13.8203 73.7458 14.5456C73.5601 14.1172 73.0772 13.6145 72.2939 13.6145C71.4362 13.6145 70.8419 14.2825 70.8419 15.119V22.2233H70.8386Z" fill="#FCAF17"/>
    <path d="M86.5294 11.0305C86.5294 11.9987 87.3094 12.7611 88.2616 12.7611C89.2104 12.7611 89.9938 11.9987 89.9938 11.0305C89.9938 10.0624 89.2138 9.3 88.2616 9.3C87.3094 9.3 86.5294 10.0624 86.5294 11.0305ZM86.8097 22.2234C86.8097 23.0599 87.404 23.7279 88.2616 23.7279C89.1193 23.7279 89.7135 23.0599 89.7135 22.2234V15.1191C89.7135 14.2825 89.1193 13.6145 88.2616 13.6145C87.404 13.6145 86.8097 14.2825 86.8097 15.1191V22.2234Z" fill="#FCAF17"/>
    <path d="M91.1081 22.2233C91.1081 23.0599 91.7023 23.7279 92.56 23.7279C93.4176 23.7279 94.0119 23.0599 94.0119 22.2233V10.8079C94.0119 9.9713 93.4176 9.30338 92.56 9.30338C91.7023 9.30338 91.1081 9.9713 91.1081 10.8079V22.2233Z" fill="#FCAF17"/>
    <path d="M96.9124 24.8445C96.5781 25.6068 96.4295 25.9408 96.4295 26.4434C96.4295 26.9258 96.8212 27.7455 97.8612 27.7455C98.8674 27.7455 99.1071 27.1316 99.4448 26.3692L103.743 16.347C103.892 16.013 104.098 15.5104 104.098 15.0819C104.098 14.188 103.503 13.6145 102.609 13.6145C101.808 13.6145 101.4 14.3027 101.025 15.1966L99.4043 19.1367L97.6924 14.7109C97.4121 13.9856 96.9124 13.6145 96.2033 13.6145C95.4773 13.6145 94.7885 14.1172 94.7885 14.9706C94.7885 15.3046 95.0688 15.9928 95.403 16.7754L97.8781 22.6686L96.9124 24.8445Z" fill="#FCAF17"/>
    <path d="M112.725 15.1966C112.725 13.8945 110.51 13.5032 109.45 13.5032C106.62 13.5032 104.648 15.9759 104.648 18.6915C104.648 21.4812 106.566 23.8426 109.45 23.8426C110.419 23.8426 112.725 23.3771 112.725 22.0007C112.725 21.3699 112.205 20.8302 111.57 20.8302C111.253 20.8302 110.25 21.3868 109.578 21.3868C108.126 21.3868 107.326 20.0104 107.326 18.6915C107.326 17.3151 108.052 15.959 109.578 15.959C110.436 15.959 111.03 16.4785 111.698 16.4785C112.333 16.4785 112.725 15.7532 112.725 15.1966Z" fill="#ED1C26"/>
    <path d="M113.785 22.2436C113.785 23.1375 114.342 23.7313 115.126 23.7313C115.906 23.7313 116.466 23.1375 116.466 22.2436V10.791C116.466 9.89709 115.909 9.30338 115.126 9.30338C114.346 9.30338 113.785 9.89709 113.785 10.791V22.2436Z" fill="#ED1C26"/>
    <path d="M118.121 19.9362C118.121 22.3178 119.704 23.8392 122.53 23.8392C125.36 23.8392 126.94 22.3144 126.94 19.9362V15.1022C126.94 14.2082 126.383 13.6145 125.6 13.6145C124.82 13.6145 124.259 14.2082 124.259 15.1022V19.8822C124.259 20.9988 123.422 21.6128 122.527 21.6128C121.632 21.6128 120.795 20.9988 120.795 19.8822V15.1022C120.795 14.2082 120.238 13.6145 119.454 13.6145C118.671 13.6145 118.114 14.2082 118.114 15.1022V19.9362H118.121Z" fill="#ED1C26"/>
    <path d="M131.316 18.597C131.316 17.2949 131.985 15.9556 133.42 15.9556C134.814 15.9556 135.503 17.4231 135.503 18.6881C135.503 19.9328 134.814 21.3834 133.42 21.3834C131.948 21.3868 131.316 19.8991 131.316 18.597ZM128.635 22.2436C128.635 23.1375 129.192 23.7313 129.976 23.7313C130.719 23.7313 131.147 23.3231 131.316 22.6147C131.819 23.4344 132.859 23.8426 133.774 23.8426C136.472 23.8426 138.184 21.3328 138.184 18.8028C138.184 16.1985 136.752 13.5032 133.865 13.5032C132.934 13.5032 132.022 13.8203 131.316 14.4343V10.791C131.316 9.89709 130.759 9.30338 129.976 9.30338C129.196 9.30338 128.635 9.89709 128.635 10.791V22.2436Z" fill="#ED1C26"/>
    <defs>
        <linearGradient id="paint0_linear_1034_48" x1="0.71592" y1="34.3297" x2="145.011" y2="-14.9059" gradientUnits="userSpaceOnUse">
            <stop stop-color="#FB7099"/>
            <stop offset="1" stop-color="#F0AB13"/>
        </linearGradient>
    </defs>
</svg>
