<svg width="12" height="13" viewBox="0 0 12 13" fill="none" xmlns="http://www.w3.org/2000/svg">
    <path d="M6 11.1666C8.48528 11.1666 10.5 9.15191 10.5 6.66663C10.5 4.18134 8.48528 2.16663 6 2.16663C3.51472 2.16663 1.5 4.18134 1.5 6.66663C1.5 7.34755 1.65124 7.99316 1.92196 8.57168C1.97043 8.67525 1.98746 8.79133 1.96447 8.90335L1.64957 10.4378C1.57816 10.7858 1.88218 11.0951 2.23132 11.0298L3.83545 10.7297C3.94223 10.7097 4.05224 10.7259 4.15127 10.7705C4.71525 11.025 5.34109 11.1666 6 11.1666Z" stroke="#8A8784"/>
    <path d="M4.75 5.41663V5.16663C4.75 4.47627 5.30964 3.91663 6 3.91663V3.91663C6.69036 3.91663 7.25 4.47627 7.25 5.16663V5.33084C7.25 5.70591 7.101 6.06562 6.83579 6.33084L6.58579 6.58084C6.21071 6.95591 6 7.46462 6 7.99505V8.41663" stroke="#8A8784" stroke-linejoin="round"/>
    <path d="M6 8.91663V9.91663" stroke="#8A8784" stroke-linejoin="round"/>
</svg>
