<svg width="24" height="24" viewBox="0 0 24 24" fill="none" xmlns="http://www.w3.org/2000/svg">
    <path d="M3.86975 12.5869H4.26105C4.62428 12.5869 4.97264 12.4426 5.22948 12.1858C5.48632 11.929 5.63062 11.5806 5.63062 11.2174V11.0217C5.63062 10.6585 5.48632 10.3101 5.22948 10.0533C4.97264 9.79645 4.62428 9.65216 4.26105 9.65216H3.08714C2.93147 9.65216 2.78217 9.714 2.6721 9.82407C2.56202 9.93415 2.50018 10.0834 2.50018 10.2391C2.50018 10.3948 2.56202 10.5441 2.6721 10.6542C2.78217 10.7642 2.93147 10.8261 3.08714 10.8261H4.26105C4.31294 10.8261 4.36271 10.8467 4.3994 10.8834C4.43609 10.9201 4.4567 10.9698 4.4567 11.0217V11.2174C4.4567 11.2693 4.43609 11.319 4.3994 11.3557C4.36271 11.3924 4.31294 11.413 4.26105 11.413H3.86975C3.50652 11.413 3.15816 11.5573 2.90132 11.8142C2.64448 12.071 2.50018 12.4194 2.50018 12.7826V13.7609C2.50018 13.9165 2.56202 14.0658 2.6721 14.1759C2.78217 14.286 2.93147 14.3478 3.08714 14.3478H5.04366C5.19933 14.3478 5.34863 14.286 5.4587 14.1759C5.56878 14.0658 5.63062 13.9165 5.63062 13.7609C5.63062 13.6052 5.56878 13.4559 5.4587 13.3458C5.34863 13.2357 5.19933 13.1739 5.04366 13.1739H3.6741V12.7826C3.6741 12.7307 3.69471 12.6809 3.7314 12.6442C3.76809 12.6076 3.81786 12.5869 3.86975 12.5869Z" fill="#D8242A"/>
    <path d="M5.63062 17.2826C5.63062 16.9194 5.48632 16.571 5.22948 16.3142C4.97264 16.0573 4.62428 15.9131 4.26105 15.9131H3.08714C2.93147 15.9131 2.78217 15.9749 2.6721 16.085C2.56202 16.195 2.50018 16.3443 2.50018 16.5C2.50018 16.6557 2.56202 16.805 2.6721 16.9151C2.78217 17.0251 2.93147 17.087 3.08714 17.087H4.26105C4.31294 17.087 4.36271 17.1076 4.3994 17.1443C4.43609 17.181 4.4567 17.2307 4.4567 17.2826V17.4783C4.4567 17.5302 4.43609 17.5799 4.3994 17.6166C4.36271 17.6533 4.31294 17.6739 4.26105 17.6739H3.47844C3.32277 17.6739 3.17348 17.7358 3.0634 17.8458C2.95333 17.9559 2.89149 18.1052 2.89149 18.2609C2.89149 18.4166 2.95333 18.5658 3.0634 18.6759C3.17348 18.786 3.32277 18.8478 3.47844 18.8478H4.26105C4.31294 18.8478 4.36271 18.8684 4.3994 18.9051C4.43609 18.9418 4.4567 18.9916 4.4567 19.0435V19.2391C4.4567 19.291 4.43609 19.3408 4.3994 19.3775C4.36271 19.4142 4.31294 19.4348 4.26105 19.4348H3.08714C2.93147 19.4348 2.78217 19.4966 2.6721 19.6067C2.56202 19.7168 2.50018 19.8661 2.50018 20.0217C2.50018 20.1774 2.56202 20.3267 2.6721 20.4368C2.78217 20.5469 2.93147 20.6087 3.08714 20.6087H4.26105C4.62428 20.6087 4.97264 20.4644 5.22948 20.2076C5.48632 19.9507 5.63062 19.6024 5.63062 19.2391V19.0435C5.62972 18.7631 5.54225 18.4897 5.38018 18.2609C5.54225 18.032 5.62972 17.7587 5.63062 17.4783V17.2826Z" fill="#D8242A"/>
    <path d="M4.26105 8.08695C4.41672 8.08695 4.56602 8.02511 4.67609 7.91503C4.78617 7.80496 4.84801 7.65566 4.84801 7.49999V3.97825C4.84801 3.82258 4.78617 3.67329 4.67609 3.56321C4.56602 3.45313 4.41672 3.39129 4.26105 3.39129H3.08714C2.93147 3.39129 2.78217 3.45313 2.6721 3.56321C2.56202 3.67329 2.50018 3.82258 2.50018 3.97825C2.50018 4.13392 2.56202 4.28322 2.6721 4.39329C2.78217 4.50337 2.93147 4.56521 3.08714 4.56521H3.6741V7.49999C3.6741 7.65566 3.73594 7.80496 3.84601 7.91503C3.95609 8.02511 4.10538 8.08695 4.26105 8.08695Z" fill="#D8242A"/>
    <path d="M19.9129 5.54349H7.78245C7.62678 5.54349 7.47749 5.60533 7.36741 5.7154C7.25734 5.82548 7.1955 5.97477 7.1955 6.13044C7.1955 6.28611 7.25734 6.43541 7.36741 6.54548C7.47749 6.65556 7.62678 6.7174 7.78245 6.7174H19.9129C20.0686 6.7174 20.2179 6.65556 20.3279 6.54548C20.438 6.43541 20.4998 6.28611 20.4998 6.13044C20.4998 5.97477 20.438 5.82548 20.3279 5.7154C20.2179 5.60533 20.0686 5.54349 19.9129 5.54349Z" fill="#D8242A"/>
    <path d="M19.9129 11.8043H7.78245C7.62678 11.8043 7.47749 11.8662 7.36741 11.9763C7.25734 12.0863 7.1955 12.2356 7.1955 12.3913C7.1955 12.547 7.25734 12.6963 7.36741 12.8063C7.47749 12.9164 7.62678 12.9783 7.78245 12.9783H19.9129C20.0686 12.9783 20.2179 12.9164 20.3279 12.8063C20.438 12.6963 20.4998 12.547 20.4998 12.3913C20.4998 12.2356 20.438 12.0863 20.3279 11.9763C20.2179 11.8662 20.0686 11.8043 19.9129 11.8043Z" fill="#D8242A"/>
    <path d="M19.9129 18.0652H7.78245C7.62678 18.0652 7.47749 18.1271 7.36741 18.2371C7.25734 18.3472 7.1955 18.4965 7.1955 18.6522C7.1955 18.8078 7.25734 18.9571 7.36741 19.0672C7.47749 19.1773 7.62678 19.2391 7.78245 19.2391H19.9129C20.0686 19.2391 20.2179 19.1773 20.3279 19.0672C20.438 18.9571 20.4998 18.8078 20.4998 18.6522C20.4998 18.4965 20.438 18.3472 20.3279 18.2371C20.2179 18.1271 20.0686 18.0652 19.9129 18.0652Z" fill="#D8242A"/>
</svg>
