<svg width="40" height="33" viewBox="0 0 40 33" fill="none" xmlns="http://www.w3.org/2000/svg">
    <path d="M2.66666 16.2463C2.66666 15.1418 3.56209 14.2463 4.66666 14.2463H36.2222C37.3268 14.2463 38.2222 15.1418 38.2222 16.2463V23.1352H2.66666V16.2463Z" stroke="black" stroke-linejoin="round"/>
    <path d="M2.66666 23.1352H38.2222V31.1352H33.7778L31.1111 27.5797H9.77778L7.11111 31.1352H2.66666V23.1352Z" stroke="black" stroke-linejoin="round"/>
    <path d="M4.44446 5.57966C4.44446 4.47509 5.33989 3.57966 6.44446 3.57966H34.4445C35.549 3.57966 36.4445 4.47509 36.4445 5.57966V14.2463H4.44446V5.57966Z" stroke="black" stroke-linejoin="round"/>
    <path d="M10.6667 9.913C10.6667 9.36071 11.1144 8.91299 11.6667 8.91299H16.7778C17.3301 8.91299 17.7778 9.36071 17.7778 9.91299V14.2463H10.6667V9.913Z" stroke="black" stroke-linejoin="round"/>
    <path d="M23.1111 9.913C23.1111 9.36071 23.5588 8.91299 24.1111 8.91299H29.2222C29.7745 8.91299 30.2222 9.36071 30.2222 9.91299V14.2463H23.1111V9.913Z" stroke="black" stroke-linejoin="round"/>
</svg>
