<svg width="101" height="96" viewBox="0 0 101 96" fill="none" xmlns="http://www.w3.org/2000/svg">
    <path d="M97.5179 34.0015L67.5398 29.6447L54.1389 2.4767C53.7728 1.73285 53.1707 1.13069 52.4268 0.764676C50.5613 -0.156273 48.2944 0.611184 47.3616 2.4767L33.9606 29.6447L3.98258 34.0015C3.15609 34.1195 2.40044 34.5092 1.82189 35.0995C1.12247 35.8184 0.737049 36.7856 0.750332 37.7885C0.763616 38.7914 1.17451 39.748 1.89274 40.4481L23.5823 61.5945L18.458 91.4545C18.3378 92.1491 18.4147 92.8635 18.6799 93.5166C18.9451 94.1698 19.3879 94.7356 19.9583 95.1498C20.5287 95.5641 21.2037 95.8102 21.9068 95.8603C22.61 95.9105 23.3131 95.7626 23.9365 95.4335L50.7502 81.3359L77.564 95.4335C78.296 95.8231 79.1462 95.953 79.9608 95.8113C82.0153 95.4571 83.3967 93.5089 83.0425 91.4545L77.9182 61.5945L99.6077 40.4481C100.198 39.8696 100.588 39.1139 100.706 38.2874C101.025 36.2212 99.5841 34.3085 97.5179 34.0015Z" fill="#eee"/>
</svg>
