<svg xmlns="http://www.w3.org/2000/svg" width="20" height="20" viewBox="0 0 20 20" fill="none">
    <path fill-rule="evenodd" clip-rule="evenodd"
          d="M3.125 12.292v4.583h13.75v-4.583zm-1.25-.125c0-.622.504-1.125 1.125-1.125h14c.621 0 1.125.503 1.125 1.125V17c0 .621-.504 1.125-1.125 1.125H3A1.125 1.125 0 0 1 1.875 17zm1.25-9.042v4.583h13.75V3.125zM1.875 3c0-.621.504-1.125 1.125-1.125h14c.621 0 1.125.504 1.125 1.125v4.833c0 .622-.504 1.125-1.125 1.125H3a1.125 1.125 0 0 1-1.125-1.125z"
          fill="#000"/>
</svg>
