<svg xmlns="http://www.w3.org/2000/svg" width="20" height="20" viewBox="0 0 20 20" fill="none">
    <mask id="a" fill="#fff">
        <path d="M15.556 1.667H4.444a2.78 2.78 0 0 0-2.777 2.777v11.112a2.78 2.78 0 0 0 2.777 2.777h11.112a2.78 2.78 0 0 0 2.777-2.777V4.444a2.78 2.78 0 0 0-2.777-2.777M4.444 2.777h11.112a1.67 1.67 0 0 1 1.666 1.667v2.693L2.778 5.074v-.63a1.67 1.67 0 0 1 1.666-1.666M2.778 15.557v-9.36l6.022.86-2.033 10.166H4.444a1.67 1.67 0 0 1-1.666-1.667m12.778 1.666H7.9L9.902 7.214l7.32 1.045v7.297a1.67 1.67 0 0 1-1.667 1.666"/>
    </mask>
    <path d="M15.556 1.667H4.444a2.78 2.78 0 0 0-2.777 2.777v11.112a2.78 2.78 0 0 0 2.777 2.777h11.112a2.78 2.78 0 0 0 2.777-2.777V4.444a2.78 2.78 0 0 0-2.777-2.777M4.444 2.777h11.112a1.67 1.67 0 0 1 1.666 1.667v2.693L2.778 5.074v-.63a1.67 1.67 0 0 1 1.666-1.666M2.778 15.557v-9.36l6.022.86-2.033 10.166H4.444a1.67 1.67 0 0 1-1.666-1.667m12.778 1.666H7.9L9.902 7.214l7.32 1.045v7.297a1.67 1.67 0 0 1-1.667 1.666"
          fill="#000" fill-opacity=".85"/>
    <path d="m15.556 1.667.001-1.5h-.002zm-11.112 0v-1.5h-.001zm-1.963.814 1.06 1.06zm-.814 1.963-1.5-.001v.001zm0 11.112h-1.5v.001zm.814 1.963 1.06-1.06zm1.963.814-.001 1.5h.001zm11.112 0v1.5h.001zm1.963-.814-1.06-1.06zm.814-1.963 1.5.001v-.002zm0-11.112h1.5v-.001zm-.814-1.963-1.06 1.06zm-13.075.297v-1.5h-.001zm11.112 0 .001-1.5h-.002zm1.178.488 1.06-1.06zm.488 1.178h1.5v-.001zm0 2.693-.212 1.485 1.712.245v-1.73zM2.778 5.074h-1.5v1.3l1.288.185zm0-.63-1.5-.001v.001zm0 11.112h-1.5v.001zm0-9.36.212-1.485-1.712-.245v1.73zm6.022.86 1.47.294.312-1.554-1.57-.225zM6.767 17.222v1.5h1.23l.24-1.206zm-2.323 0-.001 1.5h.001zm-1.178-.489-1.06 1.061zm12.29.49v1.5h.001zm-7.656 0-1.47-.295-.36 1.794H7.9zm2.002-10.01.212-1.484-1.405-.2-.278 1.39zm7.32 1.046h1.5v-1.3l-1.288-.184zm0 7.297 1.5.001v-.002zm-.489 1.178 1.061 1.06zM15.555.166H4.446v3h11.11zm-11.112 0A4.28 4.28 0 0 0 1.42 1.42l2.12 2.12c.24-.239.566-.374.905-.374zM1.42 1.42A4.28 4.28 0 0 0 .167 4.443l3 .003c0-.34.135-.664.375-.904zM.167 4.444v11.112h3V4.444zm0 11.113A4.28 4.28 0 0 0 1.42 18.58l2.12-2.12a1.28 1.28 0 0 1-.374-.905zM1.42 18.58a4.28 4.28 0 0 0 3.022 1.254l.003-3a1.28 1.28 0 0 1-.904-.375zm3.023 1.254h11.112v-3H4.444zm11.113 0a4.28 4.28 0 0 0 3.022-1.254l-2.12-2.12c-.24.239-.566.374-.905.374zm3.022-1.254a4.28 4.28 0 0 0 1.254-3.022l-3-.003c0 .339-.135.664-.375.904zm1.254-3.024V4.446h-3v11.11zm0-11.112A4.28 4.28 0 0 0 18.58 1.42l-2.12 2.12c.239.24.374.566.374.905zM18.58 1.42A4.28 4.28 0 0 0 15.557.167l-.003 3c.339 0 .664.135.904.375zM4.444 4.278h11.112v-3H4.444zm11.11 0c.044 0 .087.018.119.05l2.121-2.122a3.17 3.17 0 0 0-2.237-.928zm.119.05c.031.03.05.073.05.118l3-.003a3.17 3.17 0 0 0-.929-2.237zm.05.116v2.693h3V4.444zm1.711 1.208L2.99 3.59l-.424 2.97L17.01 8.622zM4.278 5.074v-.63h-3v.63zm0-.628q.001-.07.05-.119L2.205 2.206a3.17 3.17 0 0 0-.928 2.237zm.05-.119a.17.17 0 0 1 .118-.05l-.003-3a3.17 3.17 0 0 0-2.237.929zm-.05 11.229v-9.36h-3v9.36zM2.566 7.68l6.022.86.424-2.97-6.022-.86zm4.763-.919L5.296 16.928l2.941.588L10.271 7.35zm-.562 8.96H4.444v3h2.323zm-2.321 0a.17.17 0 0 1-.119-.05l-2.121 2.122a3.17 3.17 0 0 0 2.237.928zm-.119-.05a.17.17 0 0 1-.05-.118l-3 .003a3.17 3.17 0 0 0 .929 2.237zm11.229.05H7.9v3h7.656zM9.37 17.516l2.002-10.008L8.43 6.92 6.429 16.928zM9.69 8.7l7.32 1.045.424-2.97-7.32-1.045zm6.032-.44v7.297h3V8.259zm0 7.295a.17.17 0 0 1-.05.119l2.122 2.121a3.17 3.17 0 0 0 .928-2.237zm-.05.119a.17.17 0 0 1-.118.05l.003 3a3.17 3.17 0 0 0 2.237-.929z"
          fill="#000" fill-opacity=".85" mask="url(#a)"/>
    <path d="M13.7 8.35a4 4 0 0 0-.734 0 3.4 3.4 0 0 0-2.06 1.019 3.25 3.25 0 0 0-.902 2.079c-.04.83.231 1.644.76 2.294l2.118 2.707a.56.56 0 0 0 .451.218.58.58 0 0 0 .451-.218l2.118-2.708c.53-.649.8-1.464.761-2.293a3.25 3.25 0 0 0-.902-2.08A3.4 3.4 0 0 0 13.7 8.352m1.3 4.717-1.667 2.13-1.666-2.13a2.28 2.28 0 0 1-.53-1.543 2.16 2.16 0 0 1 .587-1.38 2.25 2.25 0 0 1 1.357-.687 2.5 2.5 0 0 1 .504 0 2.25 2.25 0 0 1 1.357.686c.356.378.564.867.587 1.38.02.56-.168 1.109-.53 1.543"
          fill="#000" fill-opacity=".85"/>
    <path d="M13.002 8.673q.33-.03.661 0v.001a3.06 3.06 0 0 1 1.863.92c.489.51.776 1.172.812 1.867v.001a3.05 3.05 0 0 1-.668 2.046l-.024.033-2.118 2.707a.255.255 0 0 1-.351.04l-.038-.04-2.118-2.707-.004-.005-.17-.227a3.05 3.05 0 0 1-.519-1.845c.036-.696.323-1.36.812-1.87a3.06 3.06 0 0 1 1.863-.92zm.046.46-.008.001a2.57 2.57 0 0 0-1.553.787 2.48 2.48 0 0 0-.675 1.588v.003c-.02.56.143 1.11.46 1.57l.145.193 1.66 2.122.256.327.256-.327 1.66-2.122a2.6 2.6 0 0 0 .604-1.763v-.003l-.019-.22a2.5 2.5 0 0 0-.655-1.369 2.57 2.57 0 0 0-1.553-.786h-.009l-.284-.014q-.143 0-.285.013Z"
          stroke="#000" stroke-opacity=".85" stroke-width=".65"/>
    <path d="M13.333 12.5a.833.833 0 1 0 0-1.667.833.833 0 0 0 0 1.667" fill="#000" fill-opacity=".85"/>
</svg>
